<svg id="Layer_1" data-name="Layer 1" xmlns="http://www.w3.org/2000/svg" width="1024" height="1024" viewBox="0 0 1024 1024">
  <defs>
    <style>
      .cls-1 {
        fill: #18301c;
      }

      .cls-2 {
        fill: #b5dbaa;
      }

      .cls-3 {
        fill: #47904e;
      }
    </style>
  </defs>
  <title>ren</title>
  <g>
    <path class="cls-1" d="M523.323,156.173c44.511.863,85.4,11.03,123.847,31.393,26.9,14.251,51.292,31.769,72.349,53.687,38.722,40.3,64.153,87.724,74.445,142.851,10.233,54.811,3.209,107.748-18.149,159.016-13.324,31.982-31.8,61.063-50.643,89.916-29.6,45.315-61.785,88.774-95.436,131.135q-30.21,38.031-62.165,74.646c-8.381,9.651-16.581,19.463-25.084,29-4.845,5.436-10.377,9.63-18.449,9.292a18.114,18.114,0,0,1-13.185-5.978c-14.475-15.367-27.916-31.63-41.511-47.76q-43.149-51.2-83.23-104.83c-32.713-43.628-63.783-88.355-90.87-135.734-15.9-27.806-28.651-56.941-35.582-88.372-6.416-29.091-7.731-58.306-4.942-88.1,4.876-52.11,23.945-98.33,54.97-139.808,28.357-37.911,64.482-66.305,107.8-85.758,27.689-12.433,56.575-19.843,86.537-23.5C510.784,156.447,517.644,156.476,523.323,156.173Z"/>
    <path class="cls-2" d="M324.618,436.951c-.353-35.161,7.45-68.462,24.451-99.166,30.422-54.941,76.287-90.316,137.839-103.543C543.864,222,595.925,235.82,642.568,269.4c38.468,27.694,62.892,65.836,76.336,111.07a188.108,188.108,0,0,1,7.928,65.4c-3.421,55.3-23.534,103.441-64.255,141.821-29.035,27.366-63.533,44.829-102.937,51.214-76.029,12.317-138.869-12.874-188.949-70.116-23.93-27.354-37.029-60.5-43.5-96.1A182.049,182.049,0,0,1,324.618,436.951Z"/>
    <path class="cls-3" d="M526.157,348.449c-1.507,1-1.736,1.083-1.733,1.157.35,8.173-2.386,15.965-2.637,24.16-.525,17.174-1.122,34.363-2.186,51.533-.544,8.791-1.369,17.708-.628,26.593a15.846,15.846,0,0,1-.217,4.468c-.737,3.569-1.5,4.856-6.094,2.859a80.525,80.525,0,0,1-24.057-16.687c-7.949-7.76-13.17-17.637-16.752-28.443-3.136-9.46-2.606-18.987-2.894-28.59-.325-10.846,3.064-20.972,5.364-31.346,1.885-8.5,5.312-16.45,8.6-24.329a257.358,257.358,0,0,1,16.413-32.146c6.826-11.488,14.575-22.439,22.178-33.446,2.454-3.553,6.182-2.917,8.128,1.482,2.789,6.3,7.352,11.406,11.021,17.079,4,6.18,7.765,12.485,11.51,18.8,3.843,6.484,8.151,12.887,10.7,19.892,2.876,7.91,7.181,15.153,9.427,23.4,2.489,9.141,6.028,17.966,6.76,27.553,1.084,14.2,2.407,28.321-1.865,42.354a65.676,65.676,0,0,1-24.544,34.926A120.993,120.993,0,0,1,534.923,460.3c-3.289,1.628-3.552-1.018-3.745-2.553a51.171,51.171,0,0,1-.129-9.747c.615-9.153-.929-18.2-1.2-27.318-.36-12.042-1.9-24.045-2.743-36.078a111.6,111.6,0,0,1-.055-13.711C527.438,363.616,525.179,356.594,526.157,348.449Z"/>
    <path class="cls-3" d="M614.7,479.042c-10.559,9.557-20.772,18.884-31.08,28.1-8.252,7.38-16.716,14.524-24.893,21.986-3.409,3.11-4.873,1.232-5.7-1.826-3.161-11.746-3.4-23.263,1.784-34.756a54.572,54.572,0,0,1,16.064-20.48,115.987,115.987,0,0,1,28.832-16.388c9.157-3.679,18.852-4.876,27.893-8.14,5.582-2.016,11.275-1.287,16.714-3.272,3.339-1.219,3.947,2.325,3.506,4.848-2.186,12.519-3.664,25.268-7.21,37.4-2.157,7.383-4.5,15-8.551,21.941-3.809,6.521-7.484,12.906-12.393,18.793-6.1,7.31-13.584,11.826-21.921,15.846-8.922,4.3-18.111,2.412-27.223,2.54-2.1.03-3.3-2.814-5.859-3.1-1.19-.135-.609-1.932.214-2.877q4.3-4.93,8.616-9.843a89.41,89.41,0,0,0,8.769-11.183c2.051-3.234,5.055-5.817,7.594-8.656,7.049-7.882,13.329-16.372,20.23-24.355C611.716,483.743,614.966,483.12,614.7,479.042Z"/>
    <path class="cls-3" d="M436.5,481.332c8.012,9.953,15.608,19.747,23.779,29.065,7.775,8.866,15.189,18.118,22.618,27.317,3.372,4.175,2.785,6.063-2.465,7.174-7.5,1.587-15.36,2.35-22.544-.132-8.514-2.942-16.678-6.363-23.672-13.258a81.514,81.514,0,0,1-16.553-22.717,139.78,139.78,0,0,1-10.934-33.174c-1.766-8.773-2.858-17.567-4.13-26.376-.606-4.2.12-4.959,4.246-4.4a192.171,192.171,0,0,1,34,7.65c10.627,3.492,21.409,7.384,30.749,14.686,4.757,3.72,9.605,7.6,14.084,11.573,4,3.549,6.371,9.059,9.083,13.914,4.172,7.469,4.438,15.7,4.345,24.044-.033,2.883-.991,5.541-1.488,8.2-1.107,5.914-6.073,5.6-11.642.147-11.148-10.927-22.8-21.294-34.879-31.218-4.09-3.361-7.429-7.736-11.766-10.95A22.535,22.535,0,0,0,436.5,481.332Z"/>
    <path class="cls-3" d="M517,547.682c0-16.887.059-33.773-.029-50.659-.035-6.79,1.729-13.471,1.052-20.289-.139-1.4.086-2.712,2-2.707,3.326.01,6.653-.013,9.979.009,2.328.016,1.914,1.779,2,3.218,1.932,32.695.6,65.423,1.05,98.133.039,2.846-.892,3.607-3.685,3.682C517,579.4,517,579.492,517,567.143Z"/>
  </g>
</svg>
